<?xml version="1.0" encoding="UTF-8"?>
<svg width="913px" height="623px" viewBox="0 0 913 623" version="1.1" xmlns="http://www.w3.org/2000/svg" xmlns:xlink="http://www.w3.org/1999/xlink">
    <title>cloud</title>
    <g id="页面-1" stroke="none" stroke-width="1" fill="none" fill-rule="evenodd">
        <g id="steam_cloud" transform="translate(-67, -200)" fill="#3A3A3C" fill-rule="nonzero">
            <path d="M555.047566,200.477845 C637.071536,197.725409 711.684669,221.837657 772.256216,277.500554 C825.738138,328.068033 845.951598,393.444072 853.224772,464.529709 C854.739061,464.87092 856.230406,465.189383 857.790582,465.530594 C899.777677,475.766926 933.665622,500.675333 957.045321,536.752716 C972.532365,563.822126 980.333246,593.552983 979.989089,624.466705 C979.989089,626.559466 979.966146,628.652227 979.966146,630.813231 C979.186057,682.836543 959.463132,731.515988 923.785573,769.686131 C884.024023,806.58242 836.016946,815.726877 783.682212,822.232634 C782.030261,822.437361 532.513549,821.659684 529.439084,821.659684 C527.924796,821.659684 293.488613,822.187139 289.519341,822.209887 C229.1084,822.460108 171.19833,812.610482 125.976164,769.686131 C89.4955734,733.586001 69.0067887,686.817339 67.8366565,635.703923 C67.7448815,633.224456 67.6760502,630.744989 67.5842751,628.197279 C68.5479134,621.486795 68.5479134,621.486795 72.6777916,616.027418 C77.7254205,612.387834 77.7254205,612.387834 86.0540082,612.524318 C93.7860579,614.662574 93.7860579,614.662574 98.3748115,621.486795 C99.3843373,626.900677 99.3843373,626.900677 100.026763,633.292698 C100.279144,635.63568 100.531526,637.978663 100.783907,640.36714 C101.28867,645.257832 101.770489,650.125777 102.229364,654.993721 C103.996035,670.962399 107.667037,684.246882 114.435449,698.827968 C115.330256,700.897982 116.225063,702.990743 117.11987,705.151747 C135.038952,742.753205 166.26542,764.681702 203.916143,780.718622 C223.99194,787.65658 244.090681,789.931321 265.267778,790.522753 C266.896786,790.590995 268.525794,790.63649 270.223632,790.681985 C275.454811,790.818469 526.089294,793.343431 529.439084,793.366179 C536.643428,793.366179 738.944497,795.64898 783.682212,793.366179 C828.261953,791.091438 864.3525,780.718622 903.8651,746.504701 C933.665622,705.151747 948.808509,664.775105 948.120196,615.777197 C947.385995,598.284443 942.430141,582.998188 935.822336,566.893026 C934.766923,564.186085 934.766923,564.186085 933.665622,561.410902 C920.358237,531.611803 893.881129,511.207381 864.3525,498.537077 C855.152049,495.488925 845.974542,494.237818 836.315215,493.305175 C828.261953,491.32615 825.692251,489.66559 821.103497,482.727632 C819.864534,475.016262 819.956309,467.350387 819.956309,459.548027 C818.510852,397.675089 794.442839,341.966697 749.977817,298.473661 C747.431059,295.948699 747.431059,295.948699 744.838413,293.378242 C700.029235,251.454777 637.048592,231.505304 576.477045,231.80102 C573.654962,231.80102 570.855822,231.823767 567.964907,231.823767 C498.74356,232.710916 442.36139,257.85433 390.058932,304.160512 C360.516788,330.315761 351.476068,363.091092 347.231515,378.406583 C343.356028,392.390384 343.501548,401.30623 338.410962,403.704262 C332.908421,406.296355 328.035368,406.296355 320.892007,403.704262 C315.358112,401.696192 310.318316,398.981205 304.032365,398.43875 C244.796023,393.326866 246.512076,403.701866 228.646171,409.1825 C210.780266,414.663134 213.483695,414.663134 203.916143,412.206415 C199.32739,407.656934 199.32739,407.656934 198.340808,399.968311 C199.32739,391.733751 199.32739,391.733751 204.214412,386.479101 C221.817457,367.466537 298.950168,355.473062 316.340606,368.990613 C316.570043,363.324923 325.950161,337.049599 338.410962,317.838573 C350.871763,298.627547 376.063233,268.629067 419.587561,241.605151 C460.450411,217.037955 507.186866,202.297637 555.047566,200.477845 Z" id="cloud"></path>
        </g>
    </g>
</svg>