<?xml version="1.0" encoding="UTF-8"?>
<svg width="737px" height="395px" viewBox="0 0 737 395" version="1.1" xmlns="http://www.w3.org/2000/svg" xmlns:xlink="http://www.w3.org/1999/xlink">
    <title>steam</title>
    <g id="é¡µé¢-1" stroke="none" stroke-width="1" fill="none" fill-rule="evenodd">
        <g id="steam_cloud" transform="translate(-43, -346)" fill="#000000">
            <path d="M658.063822,346.848735 C724.683228,346.848735 779.550186,399.326325 779.550186,463.765718 C779.550186,528.590975 724.687146,581.068565 658.067741,581.068565 L544.422873,662.871866 C540.504085,705.70284 501.316199,740.430656 458.209525,740.430656 C415.102852,740.430656 379.833755,713.420132 371.996178,672.904346 L177.104863,593.548529 C163.777063,601.651687 148.497706,605.896197 131.642997,605.896197 C83.0500189,605.896197 43,566.538005 43,518.690791 C43,470.457713 83.0500189,431.099521 131.642997,431.099521 C173.965913,431.099521 209.626889,460.425233 218.640102,499.783425 C220.190095,502.390852 221.36038,503.851349 222.150957,504.164914 C250.654633,515.470279 313.664362,540.461721 411.180144,579.139242 C426.855298,571.421949 442.530453,566.791574 458.205607,566.791574 C462.124395,566.791574 462.124395,567.17358 466.043184,567.563303 L540.500166,462.993989 C540.500166,398.554596 595.363206,346.848735 658.063822,346.848735 Z M460.442859,585.809187 C456.577647,585.809187 448.847224,586.597203 444.982012,587.389159 L472.038494,598.421379 C499.094975,609.059592 506.825399,642.550262 499.094975,666.97481 C487.49934,692.191314 460.442859,707.951629 433.386377,696.131392 C421.790742,692.191314 414.060319,688.251235 402.464684,682.341117 C414.060319,704.01155 433.386377,715.831786 460.442859,715.831786 C495.229764,715.831786 522.286245,688.251235 522.286245,651.608503 C522.286245,615.359778 495.229764,585.809187 460.442859,585.809187 Z M131.014083,448.75834 C95.9093646,448.75834 67.6729607,477.652251 67.669145,513.964868 C67.669145,549.887028 95.9093646,578.780939 131.010267,578.780939 C135.974532,578.780939 140.549593,578.390481 144.750712,577.219106 L118.0406,566.286275 C93.2383534,554.962985 81.7911626,525.678616 91.7120613,499.517913 C102.014533,473.747668 130.250937,460.862546 155.81633,470.233544 L187.490706,483.118666 C176.802846,462.424379 155.434756,448.75834 131.014083,448.75834 Z M661.275818,374.96173 C617.782483,374.96173 582.197026,411.104541 582.197026,455.588002 C582.197026,500.468636 617.782483,536.611447 661.275818,536.611447 C708.723094,536.611447 744.30855,500.468636 744.30855,455.588002 C744.30855,411.104541 708.723094,374.96173 661.275818,374.96173 Z M661.563366,392.046476 C697.12538,392.046476 728.736059,421.251552 728.736059,456.85774 C728.736059,492.863998 697.12538,522.069074 661.563366,522.069074 C626.001352,522.069074 598.342007,492.863998 598.342007,456.85774 C598.342007,421.251552 626.001352,392.046476 661.563366,392.046476 Z" id="steam"></path>
        </g>
    </g>
</svg>