<?xml version="1.0" encoding="UTF-8"?>
<svg width="1024px" height="1024px" viewBox="0 0 1024 1024" version="1.1" xmlns="http://www.w3.org/2000/svg" xmlns:xlink="http://www.w3.org/1999/xlink">
    <title>steam_cloud</title>
    <g id="steam_cloud" stroke="none" fill="none">
        <path d="M1024.00017,651.000083 C1024.00017,665.243083 1024.00017,679.483083 1023.91608,693.726083 C1023.84708,705.722083 1023.70908,717.716083 1023.38408,729.709083 C1022.67508,755.842083 1021.13708,782.203083 1016.49208,808.046083 C1011.77908,834.264083 1004.08808,858.664083 991.963083,882.484083 C980.046083,905.897083 964.474083,927.321083 945.898083,945.897083 C927.321083,964.474083 905.897083,980.046083 882.484083,991.963083 C858.664083,1004.08808 834.264083,1011.77908 808.047083,1016.49208 C782.203083,1021.13708 755.843083,1022.67508 729.709083,1023.38408 C717.716083,1023.70908 705.722083,1023.84708 693.726083,1023.91608 C679.483083,1024.00017 665.243083,1024.00017 651.000083,1024.00017 L373.000083,1024.00017 C358.757083,1024.00017 344.517083,1024.00017 330.274083,1023.91608 C318.278083,1023.84708 306.284083,1023.70908 294.291083,1023.38408 C268.158083,1022.67508 241.797083,1021.13708 215.954083,1016.49208 C189.736083,1011.77908 165.336083,1004.08808 141.516083,991.963083 C118.104083,980.046083 96.679083,964.474083 78.103083,945.897083 C59.526083,927.321083 43.955083,905.897083 32.037083,882.484083 C19.913083,858.664083 12.221083,834.264083 7.50908304,808.046083 C2.86308304,782.203083 1.32508304,755.842083 0.617083045,729.709083 C0.291083045,717.716083 0.153083045,705.722083 0.084083045,693.726083 C0,679.483083 0,665.243083 0,651.000083 L0,373.000083 C0,358.757083 0,344.517083 0.084083045,330.274083 C0.153083045,318.278083 0.291083045,306.284083 0.617083045,294.291083 C1.32508304,268.158083 2.86308304,241.797083 7.50908304,215.954083 C12.221083,189.736083 19.913083,165.336083 32.037083,141.516083 C43.955083,118.104083 59.526083,96.679083 78.103083,78.103083 C96.679083,59.526083 118.104083,43.954083 141.516083,32.037083 C165.336083,19.913083 189.736083,12.221083 215.954083,7.50908304 C241.797083,2.86308304 268.158083,1.32508304 294.291083,0.616083045 C306.284083,0.291083045 318.278083,0.153083045 330.274083,0.084083045 C344.517083,0 358.757083,0 373.000083,0 L651.000083,0 C665.243083,0 679.483083,0 693.726083,0.084083045 C705.722083,0.153083045 717.716083,0.291083045 729.709083,0.616083045 C755.843083,1.32508304 782.203083,2.86308304 808.047083,7.50908304 C834.264083,12.221083 858.664083,19.913083 882.484083,32.037083 C905.897083,43.954083 927.321083,59.526083 945.898083,78.103083 C964.474083,96.679083 980.046083,118.104083 991.963083,141.516083 C1004.08808,165.336083 1011.77908,189.736083 1016.49208,215.954083 C1021.13708,241.797083 1022.67508,268.158083 1023.38408,294.291083 C1023.70908,306.284083 1023.84708,318.278083 1023.91608,330.274083 C1024.00017,344.517083 1024.00017,358.757083 1024.00017,373.000083 L1024.00017,651.000083 Z" id="Icon-Shape" fill="#F2F2F7" fill-rule="evenodd"></path>
        <path d="M543.047566,201.477845 C625.071536,198.725409 699.684669,222.837657 760.256216,278.500554 C813.738138,329.068033 833.951598,394.444072 841.224772,465.529709 C842.739061,465.87092 844.230406,466.189383 845.790582,466.530594 C887.777677,476.766926 921.665622,501.675333 945.045321,537.752716 C960.532365,564.822126 968.333246,594.552983 967.989089,625.466705 C967.989089,627.559466 967.966146,629.652227 967.966146,631.813231 C967.186057,683.836543 947.463132,732.515988 911.785573,770.686131 C872.024023,807.58242 824.016946,816.726877 771.682212,823.232634 C770.030261,823.437361 520.513549,822.659684 517.439084,822.659684 C515.924796,822.659684 281.488613,823.187139 277.519341,823.209887 C217.1084,823.460108 159.19833,813.610482 113.976164,770.686131 C77.4955734,734.586001 57.0067887,687.817339 55.8366565,636.703923 C55.7448815,634.224456 55.6760502,631.744989 55.5842751,629.197279 C56.5479134,622.486795 56.5479134,622.486795 60.6777916,617.027418 C65.7254205,613.387834 65.7254205,613.387834 74.0540082,613.524318 C81.7860579,615.662574 81.7860579,615.662574 86.3748115,622.486795 C87.3843373,627.900677 87.3843373,627.900677 88.0267628,634.292698 C88.2791442,636.63568 88.5315257,638.978663 88.7839071,641.36714 C89.28867,646.257832 89.7704891,651.125777 90.2293645,655.993721 C91.9960346,671.962399 95.6670375,685.246882 102.435449,699.827968 C103.330256,701.897982 104.225063,703.990743 105.11987,706.151747 C123.038952,743.753205 154.26542,765.681702 191.916143,781.718622 C211.99194,788.65658 232.090681,790.931321 253.267778,791.522753 C254.896786,791.590995 256.525794,791.63649 258.223632,791.681985 C263.454811,791.818469 514.089294,794.343431 517.439084,794.366179 C524.643428,794.366179 726.944497,796.64898 771.682212,794.366179 C816.261953,792.091438 852.3525,781.718622 891.8651,747.504701 C921.665622,706.151747 936.808509,665.775105 936.120196,616.777197 C935.385995,599.284443 930.430141,583.998188 923.822336,567.893026 C922.766923,565.186085 922.766923,565.186085 921.665622,562.410902 C908.358237,532.611803 881.881129,512.207381 852.3525,499.537077 C843.152049,496.488925 833.974542,495.237818 824.315215,494.305175 C816.261953,492.32615 813.692251,490.66559 809.103497,483.727632 C807.864534,476.016262 807.956309,468.350387 807.956309,460.548027 C806.510852,398.675089 782.442839,342.966697 737.977817,299.473661 C735.431059,296.948699 735.431059,296.948699 732.838413,294.378242 C688.029235,252.454777 625.048592,232.505304 564.477045,232.80102 C561.654962,232.80102 558.855822,232.823767 555.964907,232.823767 C486.74356,233.710916 430.36139,258.85433 378.058932,305.160512 C348.516788,331.315761 339.476068,364.091092 335.231515,379.406583 C331.356028,393.390384 331.501548,402.30623 326.410962,404.704262 C320.908421,407.296355 316.035368,407.296355 308.892007,404.704262 C303.358112,402.696192 298.318316,399.981205 292.032365,399.43875 C232.796023,394.326866 234.512076,404.701866 216.646171,410.1825 C198.780266,415.663134 201.483695,415.663134 191.916143,413.206415 C187.32739,408.656934 187.32739,408.656934 186.340808,400.968311 C187.32739,392.733751 187.32739,392.733751 192.214412,387.479101 C209.817457,368.466537 286.950168,356.473062 304.340606,369.990613 C304.570043,364.324923 313.950161,338.049599 326.410962,318.838573 C338.871763,299.627547 364.063233,269.629067 407.587561,242.605151 C448.450411,218.037955 495.186866,203.297637 543.047566,201.477845 Z" id="cloud" fill="#3A3A3C" fill-rule="nonzero"></path>
        <path d="M658.063822,346.848735 C724.683228,346.848735 779.550186,399.326325 779.550186,463.765718 C779.550186,528.590975 724.687146,581.068565 658.067741,581.068565 L544.422873,662.871866 C540.504085,705.70284 501.316199,740.430656 458.209525,740.430656 C415.102852,740.430656 379.833755,713.420132 371.996178,672.904346 L177.104863,593.548529 C163.777063,601.651687 148.497706,605.896197 131.642997,605.896197 C83.0500189,605.896197 43,566.538005 43,518.690791 C43,470.457713 83.0500189,431.099521 131.642997,431.099521 C173.965913,431.099521 209.626889,460.425233 218.640102,499.783425 C220.190095,502.390852 221.36038,503.851349 222.150957,504.164914 C250.654633,515.470279 313.664362,540.461721 411.180144,579.139242 C426.855298,571.421949 442.530453,566.791574 458.205607,566.791574 C462.124395,566.791574 462.124395,567.17358 466.043184,567.563303 L540.500166,462.993989 C540.500166,398.554596 595.363206,346.848735 658.063822,346.848735 Z M460.442859,585.809187 C456.577647,585.809187 448.847224,586.597203 444.982012,587.389159 L472.038494,598.421379 C499.094975,609.059592 506.825399,642.550262 499.094975,666.97481 C487.49934,692.191314 460.442859,707.951629 433.386377,696.131392 C421.790742,692.191314 414.060319,688.251235 402.464684,682.341117 C414.060319,704.01155 433.386377,715.831786 460.442859,715.831786 C495.229764,715.831786 522.286245,688.251235 522.286245,651.608503 C522.286245,615.359778 495.229764,585.809187 460.442859,585.809187 Z M131.014083,448.75834 C95.9093646,448.75834 67.6729607,477.652251 67.669145,513.964868 C67.669145,549.887028 95.9093646,578.780939 131.010267,578.780939 C135.974532,578.780939 140.549593,578.390481 144.750712,577.219106 L118.0406,566.286275 C93.2383534,554.962985 81.7911626,525.678616 91.7120613,499.517913 C102.014533,473.747668 130.250937,460.862546 155.81633,470.233544 L187.490706,483.118666 C176.802846,462.424379 155.434756,448.75834 131.014083,448.75834 Z M661.275818,374.96173 C617.782483,374.96173 582.197026,411.104541 582.197026,455.588002 C582.197026,500.468636 617.782483,536.611447 661.275818,536.611447 C708.723094,536.611447 744.30855,500.468636 744.30855,455.588002 C744.30855,411.104541 708.723094,374.96173 661.275818,374.96173 Z M661.563366,392.046476 C697.12538,392.046476 728.736059,421.251552 728.736059,456.85774 C728.736059,492.863998 697.12538,522.069074 661.563366,522.069074 C626.001352,522.069074 598.342007,492.863998 598.342007,456.85774 C598.342007,421.251552 626.001352,392.046476 661.563366,392.046476 Z" id="steam" fill="#000000" fill-rule="evenodd"></path>
    </g>
</svg>